<svg width="580" height="400" xmlns="http://www.w3.org/2000/svg">
 <!-- Created with Method Draw - http://github.com/duopixel/Method-Draw/ -->

 <g>
  <title>background</title>
  <rect fill="#0fffff" id="canvas_background" height="402" width="582" y="-1" x="-1"/>
  <g display="none" overflow="visible" y="0" x="0" height="100%" width="100%" id="canvasGrid">
   <rect fill="url(#gridpattern)" stroke-width="0" y="0" x="0" height="100%" width="100%"/>
  </g>
 </g>
 <g>
  <title>Layer 1</title>
  <defs>
   <style>.a{fill:#f7f7f7;}</style>
  </defs>
  <path stroke-width="0" stroke="null" id="svg_4" d="m257.866097,162.443985q5.720703,-0.747947 7.357691,1.97458q0.967311,1.148099 0.437697,3.593886a75.205139,64.256136 0 0 1 -10.110806,15.807862l-1.260568,3.593886l1.050473,1.256551l1.260568,0l6.307217,-3.234871l10.303393,-8.440583l5.252367,-5.209452q1.750789,-0.467467 1.050473,1.256551q-4.333203,4.741985 -5.046649,12.576731l0.840379,1.97458l1.470663,0.373974a12.474371,10.658246 0 0 0 6.097122,-4.487683l4.20627,-6.825017l0.437697,-3.9529l-0.849133,-1.821251l0.437697,-1.256551l1.680757,0.538522l0.437697,2.875857l1.050473,0.897537q1.094243,-0.250562 0.630284,0.718029l-2.100947,0l0,0.897537q-2.42922,7.670198 -8.653274,12.041949q-1.470663,1.256551 -4.20627,1.436058l-2.311041,-0.718029q-1.3875,-1.402401 -0.840379,-4.861656l1.680757,-5.747974l-9.042825,7.389717l-7.567785,4.296956l-3.786081,0.373974l-1.470663,-0.897537l-0.437697,-1.436058a18.006864,15.385272 0 0 1 2.945702,-6.466003l6.307217,-8.975365q1.597595,-2.40839 1.680757,-6.106988l-1.457532,-2.000759l-3.786081,-0.373974q-9.756271,3.160077 -15.7571,9.521367q-2.534267,2.169047 -3.374646,5.762933l0.437697,0.897537l1.890852,0.373974l3.155797,-0.718029l-0.630284,1.077044l-4.223778,0.70681l-1.453155,-0.897537l-0.437697,-2.516842l1.680757,-3.593886l4.81467,-4.861656q5.488723,-4.659711 13.901264,-6.813798zm17.030799,14.730818l0,0z" class="a"/>
  <path stroke-width="0" stroke="null" id="svg_5" d="m298.965868,178.528588q2.713723,-0.224384 3.720426,0.747947l-1.313092,1.70158l-2.188486,8.414405q2.407335,-0.448768 3.063881,0.934934l-1.094243,0.186987l-1.750789,-0.373974l-3.720426,8.414405a26.808956,22.90588 0 0 1 -6.784307,6.918511q-2.669953,2.206444 -8.316247,1.869868l-3.720426,-2.430828l-0.437697,-3.365762a13.161556,11.245385 0 0 1 4.595821,-5.79659l9.629339,-4.861656l5.252367,-1.121921l1.53194,-0.934934l0.437697,-3.365762l-0.437697,0l-3.282729,3.552749l-2.626183,0.373974l-1.094243,-1.682881q1.488171,-5.647001 6.34661,-8.414405l2.188486,-0.766646zm-2.407335,2.26254l-0.875394,0.373974q-3.501578,1.869868 -5.252367,5.609603l0,2.243841l1.313092,0q3.939275,-2.991788 6.127761,-7.853445l-1.313092,-0.373974zm-0.437697,4.861656l0,0zm-1.313092,5.23563q-7.87855,1.869868 -13.130917,5.23563a14.675988,12.539333 0 0 0 -5.690064,6.35755q-0.437697,2.243841 0.437697,3.739736l2.188486,1.121921l2.188486,0.373974l4.81467,-1.495894l5.690064,-5.609603l3.501578,-8.227418l0,-1.495894z" class="a"/>
  <path stroke-width="0" stroke="null" id="svg_6" d="m309.470601,187.877927q1.663249,-0.261781 1.969638,0.56096q0.350158,1.4211 -0.656546,1.682881q-1.61948,0.299179 -1.969638,-0.56096q-0.306388,-1.383702 0.656546,-1.682881z" class="a"/>
 </g>
</svg>