<svg xmlns="http://www.w3.org/2000/svg" viewBox="0 0 169.21 120.57"><defs><style>.cls-1{fill:#f7f7f7;}</style></defs><title>Ресурс 2</title><g id="Слой_2" data-name="Слой 2"><g id="Слой_1-2" data-name="Слой 1"><path class="cls-1" d="M48.5.45Q62.1-1.65,66,6q2.3,3.2,1,10A178.83,178.83,0,0,1,43,60L40,70l2.5,3.5h3l15-9L85,41l12.5-14.5q4.2-1.3,2.5,3.5Q89.7,43.15,88,65l2,5.5,3.5,1A29.66,29.66,0,0,0,108,59l10-19,1-11-2-5,1-3.5,4,1.5,1,8,2.5,2.5q2.6-.7,1.5,2h-5V37q-5.7,21.3-20.5,33.5-3.5,3.5-10,4l-5.5-2q-3.3-3.9-2-13.5l4-16L66.5,63.45l-18,12-9,1L36,74l-1-4a42.82,42.82,0,0,1,7-18L57,27q3.8-6.7,4-17l-3.5-5.5-9-1Q25.3,12.25,11,30,5,36,3,46l1,2.5,4.5,1,7.5-2-1.5,3-10,2L1,50,0,43,4,33l11.5-13.5Q28.5,6.45,48.5.45Zm40.5,41v0Z"/><path class="cls-1" d="M140.5,43.45q6.2-.6,8.5,2L146,50l-5,22.5q5.5-1.2,7,2.5l-2.5.5-4-1L133,97a61.25,61.25,0,0,1-15.5,18.5q-6.1,5.9-19,5L90,114l-1-9a30.07,30.07,0,0,1,10.5-15.5l22-13,12-3L137,71l1-9h-1l-7.5,9.5-6,1L121,68q3.4-15.1,14.5-22.5Zm-.5,4-2,1q-8,5-12,15v6h3q9-8,14-21Zm-1,13v0Zm-3,14q-18,5-30,14a33.53,33.53,0,0,0-13,17q-1,6,1,10l5,3,5,1,11-4,13-15,8-22Z"/><path class="cls-1" d="M164.5,68.45q3.8-.7,4.5,1.5.8,3.8-1.5,4.5-3.7.8-4.5-1.5Q162.3,69.25,164.5,68.45Z"/></g></g></svg>