<svg xmlns="http://www.w3.org/2000/svg" viewBox="0 0 169.21 120.57"><defs><style>.a{fill:#f7f7f7;}</style></defs><title>Ресурс 3</title><path class="a" d="M46.6.44q13.07-2,16.81,5.28,2.21,3.07,1,9.61A171.82,171.82,0,0,1,41.31,57.6l-2.88,9.61,2.4,3.36h2.88l14.41-8.65L81.66,39.35l12-13.93q4-1.25,2.4,3.36-9.9,12.68-11.53,33.63l1.92,5.28,3.36,1a28.5,28.5,0,0,0,13.93-12l9.61-18.25,1-10.57L112.41,23l1-3.36,3.84,1.44,1,7.69,2.4,2.4q2.5-.67,1.44,1.92h-4.8v2.4Q111.74,56,97.52,67.69q-3.36,3.36-9.61,3.84l-5.28-1.92q-3.17-3.75-1.92-13l3.84-15.37L63.89,61,46.6,72.49l-8.65,1-3.36-2.4-1-3.84a41.14,41.14,0,0,1,6.73-17.29l14.41-24q3.65-6.44,3.84-16.33L55.24,4.28l-8.65-1q-22.29,8.45-36,25.46Q4.8,34.54,2.88,44.15l1,2.4,4.32,1,7.21-1.92-1.44,2.88L4.32,50.4,1,48,0,41.27l3.84-9.61,11-13Q27.38,6.2,46.6.44ZM85.51,39.83v0Z"/><path class="a" d="M140.5,43.45q6.2-.6,8.5,2L146,50l-5,22.5q5.5-1.2,7,2.5l-2.5.5-4-1L133,97a61.25,61.25,0,0,1-15.5,18.5q-6.1,5.9-19,5L90,114l-1-9a30.07,30.07,0,0,1,10.5-15.5l22-13,12-3L137,71l1-9h-1l-7.5,9.5-6,1L121,68q3.4-15.1,14.5-22.5Zm-.5,4-2,1q-8,5-12,15v6h3q9-8,14-21Zm-1,13v0Zm-3,14q-18,5-30,14a33.53,33.53,0,0,0-13,17q-1,6,1,10l5,3,5,1,11-4,13-15,8-22Z"/><path class="a" d="M164.5,68.45q3.8-.7,4.5,1.5.8,3.8-1.5,4.5-3.7.8-4.5-1.5Q162.3,69.25,164.5,68.45Z"/></svg>