<svg id="svg-logo" viewBox="0 0 169 120" version="1.1" xmlns="http://www.w3.org/2000/svg">
    <path
          d="M 48.5 0 Q 62.1 -2.1 66 5.5 Q 68.3 8.7 67 15.5 Q 57.6 40.1 43 59.5 L 40 69.5 L 42.5 73 L 45.5 73 L 60.5 64 L 85 40.5 L 97.5 26 Q 101.7 24.7 100 29.5 Q 89.7 42.7 88 64.5 L 90 70 L 93.5 71 Q 103 67 108 58.5 L 118 39.5 L 119 28.5 L 117 23.5 L 118 20 L 122 21.5 L 123 29.5 L 125.5 32 Q 128.1 31.3 127 34 L 122 34 L 122 36.5 Q 116.3 57.8 101.5 70 Q 98 73.5 91.5 74 L 86 72 Q 82.7 68.1 84 58.5 L 88 42.5 L 66.5 63 L 48.5 75 L 39.5 76 L 36 73.5 L 35 69.5 Q 36.8 58.8 42 51.5 L 57 26.5 Q 60.8 19.8 61 9.5 L 57.5 4 L 48.5 3 Q 25.3 11.8 11 29.5 Q 5 35.5 3 45.5 L 4 48 L 8.5 49 L 16 47 L 14.5 50 L 4.5 52 L 1 49.5 L 0 42.5 L 4 32.5 L 15.5 19 Q 28.5 6 48.5 0 Z M 89 41 L 89 42 L 89 41 Z "/>
    <path
          d="M 140.5 43 Q 146.7 42.4 149 45 L 146 49.5 L 141 72 Q 146.5 70.8 148 74.5 L 145.5 75 L 141.5 74 L 133 96.5 Q 127 107.4 117.5 115 Q 111.4 120.9 98.5 120 L 90 113.5 L 89 104.5 Q 92.1 94.6 99.5 89 L 121.5 76 L 133.5 73 L 137 70.5 L 138 61.5 L 137 61.5 L 129.5 71 L 123.5 72 L 121 67.5 Q 124.4 52.4 135.5 45 L 140.5 43 Z M 140 47 L 138 48 Q 130 53 126 63 L 126 69 L 129 69 Q 138 61 143 48 L 140 47 Z M 139 60 L 139 61 L 139 60 Z M 136 74 Q 118 79 106 88 Q 97 94 93 105 Q 92 111 94 115 L 99 118 L 104 119 L 115 115 L 128 100 L 136 78 L 136 74 Z "/>
    <path
          d="M 164.5 68 Q 168.3 67.3 169 69.5 Q 169.8 73.3 167.5 74 Q 163.8 74.8 163 72.5 Q 162.3 68.8 164.5 68 Z "/>
</svg>